<mxfile modified="2022-05-02T00:11:57.964Z" host="app.diagrams.net" agent="5.0 (Windows NT 10.0; Win64; x64) AppleWebKit/537.36 (KHTML, like Gecko) Chrome/100.0.4896.127 Safari/537.36 Edg/100.0.1185.50" etag="OrQJaI1OFxcghdwsCzDk" compressed="false" version="17.5.0" type="google">
  <diagram id="C7umzSa8S5onbkFB0T4B" name="Considerations Checklist">
    <mxGraphModel grid="1" page="1" gridSize="10" guides="1" tooltips="1" connect="1" arrows="1" fold="1" pageScale="1" pageWidth="827" pageHeight="1169" math="0" shadow="0">
      <root>
        <mxCell id="0uZ7unWX9YPgCVN430QD-0" />
        <mxCell id="0uZ7unWX9YPgCVN430QD-1" parent="0uZ7unWX9YPgCVN430QD-0" />
        <mxCell id="0uZ7unWX9YPgCVN430QD-2" value="" style="group;fontSize=12;" connectable="0" vertex="1" parent="0uZ7unWX9YPgCVN430QD-1">
          <mxGeometry x="120" y="120" width="560" height="45" as="geometry" />
        </mxCell>
        <mxCell id="0uZ7unWX9YPgCVN430QD-3" value="&lt;font style=&quot;font-size: 12px&quot;&gt;System - Procurement High-Level Preliminary Assessment Rubric&lt;/font&gt;" style="text;strokeColor=none;fillColor=none;html=1;fontSize=24;fontStyle=1;verticalAlign=middle;align=left;shadow=0;glass=0;comic=0;opacity=30;fontColor=#808080;" vertex="1" parent="0uZ7unWX9YPgCVN430QD-2">
          <mxGeometry width="560" height="40" as="geometry" />
        </mxCell>
        <mxCell id="0uZ7unWX9YPgCVN430QD-4" value="" style="line;strokeWidth=2;html=1;shadow=0;glass=0;comic=0;fillColor=none;fontSize=10;fontColor=#CCCCCC;labelBackgroundColor=none;strokeColor=#CCCCCC;" vertex="1" parent="0uZ7unWX9YPgCVN430QD-2">
          <mxGeometry y="35" width="560" height="10" as="geometry" />
        </mxCell>
        <UserObject label="&lt;font style=&quot;font-size: 12px&quot;&gt;Secure &lt;/font&gt;&lt;font style=&quot;font-size: 10px&quot;&gt;HTTPS&lt;/font&gt;&lt;font style=&quot;font-size: 12px&quot;&gt; comms not enforced&lt;br style=&quot;font-size: 12px&quot;&gt;&lt;/font&gt;" id="0uZ7unWX9YPgCVN430QD-5">
          <mxCell style="rounded=0;whiteSpace=wrap;html=1;strokeWidth=1;fillColor=#f8cecc;fontSize=12;align=center;horizontal=1;verticalAlign=middle;arcSize=6;container=0;absoluteArcSize=1;recursiveResize=0;strokeColor=#b85450;" vertex="1" parent="0uZ7unWX9YPgCVN430QD-1">
            <mxGeometry x="190" y="190" width="80" height="40" as="geometry" />
          </mxCell>
        </UserObject>
        <UserObject label="&lt;font style=&quot;font-size: 12px&quot;&gt;Enforced (HTTP returns an Error Msg)&lt;br style=&quot;font-size: 12px&quot;&gt;&lt;/font&gt;" id="0uZ7unWX9YPgCVN430QD-6">
          <mxCell style="rounded=0;whiteSpace=wrap;html=1;strokeWidth=1;fillColor=#F8CECC;fontSize=12;align=center;horizontal=1;verticalAlign=middle;arcSize=6;container=0;absoluteArcSize=1;recursiveResize=0;gradientColor=#FFFFFF;gradientDirection=east;strokeColor=#B85450;" vertex="1" parent="0uZ7unWX9YPgCVN430QD-1">
            <mxGeometry x="280" y="190" width="80" height="40" as="geometry" />
          </mxCell>
        </UserObject>
        <UserObject label="&lt;font style=&quot;font-size: 12px&quot;&gt;HTTPS on all internal &amp;amp; external links&lt;br style=&quot;font-size: 12px&quot;&gt;&lt;/font&gt;" id="0uZ7unWX9YPgCVN430QD-7">
          <mxCell style="rounded=0;whiteSpace=wrap;html=1;strokeWidth=1;fillColor=#D5E8D4;fontSize=12;align=center;horizontal=1;verticalAlign=middle;arcSize=6;container=0;absoluteArcSize=1;recursiveResize=0;gradientColor=#ffffff;gradientDirection=west;strokeColor=#82B366;" vertex="1" parent="0uZ7unWX9YPgCVN430QD-1">
            <mxGeometry x="460" y="190" width="80" height="40" as="geometry" />
          </mxCell>
        </UserObject>
        <UserObject label="&lt;font style=&quot;font-size: 12px&quot;&gt;All external and internal comms is HTTPS using TLS 1.2 or better&lt;br style=&quot;font-size: 12px&quot;&gt;&lt;/font&gt;" id="0uZ7unWX9YPgCVN430QD-8">
          <mxCell style="rounded=0;whiteSpace=wrap;html=1;strokeWidth=1;fillColor=#d5e8d4;fontSize=12;align=center;horizontal=1;verticalAlign=middle;arcSize=6;container=0;absoluteArcSize=1;recursiveResize=0;strokeColor=#82b366;" vertex="1" parent="0uZ7unWX9YPgCVN430QD-1">
            <mxGeometry x="550" y="190" width="130" height="40" as="geometry" />
          </mxCell>
        </UserObject>
        <UserObject label="&lt;font style=&quot;font-size: 12px&quot;&gt;Yes &lt;/font&gt;&lt;font size=&quot;1&quot;&gt;(and using redirects) &lt;/font&gt;&lt;font style=&quot;font-size: 12px&quot;&gt;but external only&lt;br style=&quot;font-size: 12px&quot;&gt;&lt;/font&gt;" id="0uZ7unWX9YPgCVN430QD-9">
          <mxCell style="rounded=0;whiteSpace=wrap;html=1;strokeWidth=1;fillColor=#FFFFFF;fontSize=12;align=center;horizontal=1;verticalAlign=middle;arcSize=6;container=0;absoluteArcSize=1;recursiveResize=0;" vertex="1" parent="0uZ7unWX9YPgCVN430QD-1">
            <mxGeometry x="370" y="190" width="80" height="40" as="geometry" />
          </mxCell>
        </UserObject>
        <UserObject label="&lt;font style=&quot;font-size: 12px&quot;&gt;No encryption of db, etc. storage&lt;br style=&quot;font-size: 12px&quot;&gt;&lt;/font&gt;" id="0uZ7unWX9YPgCVN430QD-10">
          <mxCell style="rounded=0;whiteSpace=wrap;html=1;strokeWidth=1;fillColor=#f8cecc;fontSize=12;align=center;horizontal=1;verticalAlign=middle;arcSize=6;container=0;absoluteArcSize=1;recursiveResize=0;strokeColor=#b85450;" vertex="1" parent="0uZ7unWX9YPgCVN430QD-1">
            <mxGeometry x="190" y="240" width="80" height="40" as="geometry" />
          </mxCell>
        </UserObject>
        <UserObject label="&lt;font style=&quot;font-size: 12px&quot;&gt;DB is encrypted, backup is not&lt;br style=&quot;font-size: 12px&quot;&gt;&lt;/font&gt;" id="0uZ7unWX9YPgCVN430QD-11">
          <mxCell style="rounded=0;whiteSpace=wrap;html=1;strokeWidth=1;fillColor=#F8CECC;fontSize=12;align=center;horizontal=1;verticalAlign=middle;arcSize=6;container=0;absoluteArcSize=1;recursiveResize=0;gradientColor=#FFFFFF;gradientDirection=east;strokeColor=#B85450;" vertex="1" parent="0uZ7unWX9YPgCVN430QD-1">
            <mxGeometry x="280" y="240" width="80" height="40" as="geometry" />
          </mxCell>
        </UserObject>
        <UserObject label="&lt;font style=&quot;font-size: 12px&quot;&gt;DB &amp;amp; backup are encrypted&lt;br style=&quot;font-size: 12px&quot;&gt;&lt;/font&gt;" id="0uZ7unWX9YPgCVN430QD-12">
          <mxCell style="rounded=0;whiteSpace=wrap;html=1;strokeWidth=1;fillColor=#FFFFFF;fontSize=12;align=center;horizontal=1;verticalAlign=middle;arcSize=6;container=0;absoluteArcSize=1;recursiveResize=0;" vertex="1" parent="0uZ7unWX9YPgCVN430QD-1">
            <mxGeometry x="370" y="240" width="80" height="40" as="geometry" />
          </mxCell>
        </UserObject>
        <UserObject label="&lt;font style=&quot;font-size: 12px&quot;&gt;Dev &amp;amp; Tests only use Fake test data&lt;br style=&quot;font-size: 12px&quot;&gt;&lt;/font&gt;" id="0uZ7unWX9YPgCVN430QD-13">
          <mxCell style="rounded=0;whiteSpace=wrap;html=1;strokeWidth=1;fillColor=#D5E8D4;fontSize=12;align=center;horizontal=1;verticalAlign=middle;arcSize=6;container=0;absoluteArcSize=1;recursiveResize=0;gradientColor=#ffffff;gradientDirection=west;strokeColor=#82B366;" vertex="1" parent="0uZ7unWX9YPgCVN430QD-1">
            <mxGeometry x="370" y="490" width="80" height="40" as="geometry" />
          </mxCell>
        </UserObject>
        <UserObject label="No auditing" id="0uZ7unWX9YPgCVN430QD-14">
          <mxCell style="rounded=0;whiteSpace=wrap;html=1;strokeWidth=1;fillColor=#F8CECC;fontSize=12;align=center;horizontal=1;verticalAlign=middle;arcSize=6;container=0;absoluteArcSize=1;recursiveResize=0;gradientColor=#FFFFFF;gradientDirection=east;strokeColor=#B85450;" vertex="1" parent="0uZ7unWX9YPgCVN430QD-1">
            <mxGeometry x="280" y="290" width="80" height="40" as="geometry" />
          </mxCell>
        </UserObject>
        <UserObject label="&lt;font style=&quot;font-size: 12px&quot;&gt;No Monitoring&lt;br style=&quot;font-size: 12px&quot;&gt;&lt;/font&gt;" id="0uZ7unWX9YPgCVN430QD-15">
          <mxCell style="rounded=0;whiteSpace=wrap;html=1;strokeWidth=1;fillColor=#f8cecc;fontSize=12;align=center;horizontal=1;verticalAlign=middle;arcSize=6;container=0;absoluteArcSize=1;recursiveResize=0;strokeColor=#b85450;" vertex="1" parent="0uZ7unWX9YPgCVN430QD-1">
            <mxGeometry x="190" y="390" width="80" height="40" as="geometry" />
          </mxCell>
        </UserObject>
        <UserObject label="&lt;font style=&quot;font-size: 12px&quot;&gt;Error Msgs are Sanitized&lt;br style=&quot;font-size: 12px&quot;&gt;&lt;/font&gt;" id="0uZ7unWX9YPgCVN430QD-16">
          <mxCell style="rounded=0;whiteSpace=wrap;html=1;strokeWidth=1;fillColor=#F8CECC;fontSize=12;align=center;horizontal=1;verticalAlign=middle;arcSize=6;container=0;absoluteArcSize=1;recursiveResize=0;gradientColor=#FFFFFF;gradientDirection=east;strokeColor=#B85450;" vertex="1" parent="0uZ7unWX9YPgCVN430QD-1">
            <mxGeometry x="280" y="390" width="80" height="40" as="geometry" />
          </mxCell>
        </UserObject>
        <UserObject label="&lt;font style=&quot;font-size: 12px&quot;&gt;Centrally Monitored&lt;br style=&quot;font-size: 12px&quot;&gt;&lt;/font&gt;" id="0uZ7unWX9YPgCVN430QD-17">
          <mxCell style="rounded=0;whiteSpace=wrap;html=1;strokeWidth=1;fillColor=#D5E8D4;fontSize=12;align=center;horizontal=1;verticalAlign=middle;arcSize=6;container=0;absoluteArcSize=1;recursiveResize=0;gradientColor=#ffffff;gradientDirection=west;strokeColor=#82B366;" vertex="1" parent="0uZ7unWX9YPgCVN430QD-1">
            <mxGeometry x="460" y="390" width="80" height="40" as="geometry" />
          </mxCell>
        </UserObject>
        <UserObject label="&lt;font style=&quot;font-size: 12px&quot;&gt;Prod Data DB &amp;amp; Backups are never accessed by any dev or tester, and only within Prod Env.&lt;br style=&quot;font-size: 12px&quot;&gt;&lt;/font&gt;" id="0uZ7unWX9YPgCVN430QD-18">
          <mxCell style="rounded=0;whiteSpace=wrap;html=1;strokeWidth=1;fillColor=#d5e8d4;fontSize=12;align=center;horizontal=1;verticalAlign=middle;arcSize=6;container=0;absoluteArcSize=1;recursiveResize=0;strokeColor=#82b366;" vertex="1" parent="0uZ7unWX9YPgCVN430QD-1">
            <mxGeometry x="460" y="490" width="220" height="40" as="geometry" />
          </mxCell>
        </UserObject>
        <UserObject label="&lt;font style=&quot;font-size: 12px&quot;&gt;Encrypted Backups are Long Term&lt;br style=&quot;font-size: 12px&quot;&gt;&lt;/font&gt;" id="0uZ7unWX9YPgCVN430QD-19">
          <mxCell style="rounded=0;whiteSpace=wrap;html=1;strokeWidth=1;fillColor=#D5E8D4;fontSize=12;align=center;horizontal=1;verticalAlign=middle;arcSize=6;container=0;absoluteArcSize=1;recursiveResize=0;gradientColor=#ffffff;gradientDirection=west;strokeColor=#82B366;" vertex="1" parent="0uZ7unWX9YPgCVN430QD-1">
            <mxGeometry x="460" y="240" width="80" height="40" as="geometry" />
          </mxCell>
        </UserObject>
        <UserObject label="&lt;font style=&quot;font-size: 12px&quot;&gt;Encrypted Backup &lt;/font&gt;&lt;font style=&quot;font-size: 12px&quot;&gt;r&lt;/font&gt;&lt;font style=&quot;font-size: 12px&quot;&gt;&lt;font style=&quot;font-size: 12px&quot;&gt;estoration&amp;nbsp;&lt;/font&gt;&lt;font style=&quot;font-size: 12px&quot;&gt;regularly tested&lt;/font&gt;&lt;br style=&quot;font-size: 12px&quot;&gt;&lt;/font&gt;" id="0uZ7unWX9YPgCVN430QD-20">
          <mxCell style="rounded=0;whiteSpace=wrap;html=1;strokeWidth=1;fillColor=#d5e8d4;fontSize=12;align=center;horizontal=1;verticalAlign=middle;arcSize=6;container=0;absoluteArcSize=1;recursiveResize=0;strokeColor=#82b366;" vertex="1" parent="0uZ7unWX9YPgCVN430QD-1">
            <mxGeometry x="550" y="240" width="130" height="40" as="geometry" />
          </mxCell>
        </UserObject>
        <UserObject label="&lt;font style=&quot;font-size: 12px&quot;&gt;Alerting available in system&lt;br style=&quot;font-size: 12px&quot;&gt;&lt;/font&gt;" id="0uZ7unWX9YPgCVN430QD-21">
          <mxCell style="rounded=0;whiteSpace=wrap;html=1;strokeWidth=1;fillColor=#FFFFFF;fontSize=12;align=center;horizontal=1;verticalAlign=middle;arcSize=6;container=0;absoluteArcSize=1;recursiveResize=0;" vertex="1" parent="0uZ7unWX9YPgCVN430QD-1">
            <mxGeometry x="370" y="390" width="80" height="40" as="geometry" />
          </mxCell>
        </UserObject>
        <UserObject label="&lt;font style=&quot;font-size: 12px&quot;&gt;Central Monitoring and Alerting capabilities&lt;br style=&quot;font-size: 12px&quot;&gt;&lt;/font&gt;" id="0uZ7unWX9YPgCVN430QD-22">
          <mxCell style="rounded=0;whiteSpace=wrap;html=1;strokeWidth=1;fillColor=#d5e8d4;fontSize=12;align=center;horizontal=1;verticalAlign=middle;arcSize=6;container=0;absoluteArcSize=1;recursiveResize=0;strokeColor=#82b366;" vertex="1" parent="0uZ7unWX9YPgCVN430QD-1">
            <mxGeometry x="550" y="390" width="130" height="40" as="geometry" />
          </mxCell>
        </UserObject>
        <UserObject label="Testing using Stale Prod Data" id="0uZ7unWX9YPgCVN430QD-23">
          <mxCell style="rounded=0;whiteSpace=wrap;html=1;strokeWidth=1;fillColor=#f8cecc;fontSize=12;align=center;horizontal=1;verticalAlign=middle;arcSize=6;container=0;absoluteArcSize=1;recursiveResize=0;strokeColor=#b85450;" vertex="1" parent="0uZ7unWX9YPgCVN430QD-1">
            <mxGeometry x="190" y="490" width="80" height="40" as="geometry" />
          </mxCell>
        </UserObject>
        <UserObject label="Testing using Obfuscated Prod Data&amp;nbsp;" id="0uZ7unWX9YPgCVN430QD-24">
          <mxCell style="rounded=0;whiteSpace=wrap;html=1;strokeWidth=1;fillColor=#F8CECC;fontSize=12;align=center;horizontal=1;verticalAlign=middle;arcSize=6;container=0;absoluteArcSize=1;recursiveResize=0;gradientColor=#FFFFFF;gradientDirection=east;strokeColor=#B85450;" vertex="1" parent="0uZ7unWX9YPgCVN430QD-1">
            <mxGeometry x="280" y="490" width="80" height="40" as="geometry" />
          </mxCell>
        </UserObject>
        <UserObject label="&lt;font style=&quot;font-size: 12px&quot;&gt;Hosted on Prem (vendor or buyer)&lt;br style=&quot;font-size: 12px&quot;&gt;&lt;/font&gt;" id="0uZ7unWX9YPgCVN430QD-25">
          <mxCell style="rounded=0;whiteSpace=wrap;html=1;strokeWidth=1;fillColor=#f8cecc;fontSize=12;align=center;horizontal=1;verticalAlign=middle;arcSize=6;container=0;absoluteArcSize=1;recursiveResize=0;strokeColor=#b85450;" vertex="1" parent="0uZ7unWX9YPgCVN430QD-1">
            <mxGeometry x="190" y="440" width="80" height="40" as="geometry" />
          </mxCell>
        </UserObject>
        <UserObject label="&lt;font style=&quot;font-size: 12px&quot;&gt;Host is a Service (PaaS)&lt;br style=&quot;font-size: 12px&quot;&gt;&lt;/font&gt;" id="0uZ7unWX9YPgCVN430QD-26">
          <mxCell style="rounded=0;whiteSpace=wrap;html=1;strokeWidth=1;fillColor=#F8CECC;fontSize=12;align=center;horizontal=1;verticalAlign=middle;arcSize=6;container=0;absoluteArcSize=1;recursiveResize=0;gradientColor=#FFFFFF;gradientDirection=east;strokeColor=#B85450;" vertex="1" parent="0uZ7unWX9YPgCVN430QD-1">
            <mxGeometry x="280" y="440" width="80" height="40" as="geometry" />
          </mxCell>
        </UserObject>
        <UserObject label="&lt;font style=&quot;font-size: 12px&quot;&gt;Host is within an ISO-27001 Stage 2 env&lt;br style=&quot;font-size: 12px&quot;&gt;&lt;/font&gt;" id="0uZ7unWX9YPgCVN430QD-27">
          <mxCell style="rounded=0;whiteSpace=wrap;html=1;strokeWidth=1;fillColor=#FFFFFF;fontSize=12;align=center;horizontal=1;verticalAlign=middle;arcSize=6;container=0;absoluteArcSize=1;recursiveResize=0;" vertex="1" parent="0uZ7unWX9YPgCVN430QD-1">
            <mxGeometry x="370" y="440" width="80" height="40" as="geometry" />
          </mxCell>
        </UserObject>
        <UserObject label="&lt;font style=&quot;font-size: 12px&quot;&gt;Infrastructure developed by Automation&lt;br style=&quot;font-size: 12px&quot;&gt;&lt;/font&gt;" id="0uZ7unWX9YPgCVN430QD-28">
          <mxCell style="rounded=0;whiteSpace=wrap;html=1;strokeWidth=1;fillColor=#D5E8D4;fontSize=12;align=center;horizontal=1;verticalAlign=middle;arcSize=6;container=0;absoluteArcSize=1;recursiveResize=0;gradientColor=#ffffff;gradientDirection=west;strokeColor=#82B366;" vertex="1" parent="0uZ7unWX9YPgCVN430QD-1">
            <mxGeometry x="460" y="440" width="80" height="40" as="geometry" />
          </mxCell>
        </UserObject>
        <UserObject label="&lt;font&gt;&lt;font style=&quot;font-size: 12px&quot;&gt;Access to Prod Environment restricted to pipeline service acct&lt;/font&gt;&lt;br style=&quot;font-size: 12px&quot;&gt;&lt;/font&gt;" id="0uZ7unWX9YPgCVN430QD-29">
          <mxCell style="rounded=0;whiteSpace=wrap;html=1;strokeWidth=1;fillColor=#d5e8d4;fontSize=12;align=center;horizontal=1;verticalAlign=middle;arcSize=6;container=0;absoluteArcSize=1;recursiveResize=0;strokeColor=#82b366;" vertex="1" parent="0uZ7unWX9YPgCVN430QD-1">
            <mxGeometry x="550" y="440" width="130" height="40" as="geometry" />
          </mxCell>
        </UserObject>
        <UserObject label="&lt;font style=&quot;font-size: 12px&quot;&gt;Meets dev teams objectives&lt;br style=&quot;font-size: 12px&quot;&gt;&lt;/font&gt;" id="0uZ7unWX9YPgCVN430QD-30">
          <mxCell style="rounded=0;whiteSpace=wrap;html=1;strokeWidth=1;fillColor=#f8cecc;fontSize=12;align=center;horizontal=1;verticalAlign=middle;arcSize=6;container=0;absoluteArcSize=1;recursiveResize=0;strokeColor=#b85450;" vertex="1" parent="0uZ7unWX9YPgCVN430QD-1">
            <mxGeometry x="190" y="540" width="80" height="40" as="geometry" />
          </mxCell>
        </UserObject>
        <UserObject label="&lt;font style=&quot;font-size: 12px&quot;&gt;Meets biz stakeholders UX objectives&lt;br style=&quot;font-size: 12px&quot;&gt;&lt;/font&gt;" id="0uZ7unWX9YPgCVN430QD-31">
          <mxCell style="rounded=0;whiteSpace=wrap;html=1;strokeWidth=1;fillColor=#F8CECC;fontSize=12;align=center;horizontal=1;verticalAlign=middle;arcSize=6;container=0;absoluteArcSize=1;recursiveResize=0;gradientColor=#FFFFFF;gradientDirection=east;strokeColor=#B85450;" vertex="1" parent="0uZ7unWX9YPgCVN430QD-1">
            <mxGeometry x="280" y="540" width="80" height="40" as="geometry" />
          </mxCell>
        </UserObject>
        <UserObject label="&lt;font style=&quot;font-size: 12px&quot;&gt;Meets Biz stakeholders func.objectives&lt;br style=&quot;font-size: 12px&quot;&gt;&lt;/font&gt;" id="0uZ7unWX9YPgCVN430QD-32">
          <mxCell style="rounded=0;whiteSpace=wrap;html=1;strokeWidth=1;fillColor=#FFFFFF;fontSize=12;align=center;horizontal=1;verticalAlign=middle;arcSize=6;container=0;absoluteArcSize=1;recursiveResize=0;" vertex="1" parent="0uZ7unWX9YPgCVN430QD-1">
            <mxGeometry x="370" y="540" width="80" height="40" as="geometry" />
          </mxCell>
        </UserObject>
        <UserObject label="&lt;font style=&quot;font-size: 12px&quot;&gt;Meets multiple stakeholders func.objectives&lt;br style=&quot;font-size: 12px&quot;&gt;&lt;/font&gt;" id="0uZ7unWX9YPgCVN430QD-33">
          <mxCell style="rounded=0;whiteSpace=wrap;html=1;strokeWidth=1;fillColor=#D5E8D4;fontSize=12;align=center;horizontal=1;verticalAlign=middle;arcSize=6;container=0;absoluteArcSize=1;recursiveResize=0;gradientColor=#ffffff;gradientDirection=west;strokeColor=#82B366;" vertex="1" parent="0uZ7unWX9YPgCVN430QD-1">
            <mxGeometry x="460" y="540" width="90" height="40" as="geometry" />
          </mxCell>
        </UserObject>
        <UserObject label="&lt;font style=&quot;font-size: 12px&quot;&gt;Can meet evolving objectives of multiple&lt;br&gt;stakeholders&amp;nbsp;&lt;br style=&quot;font-size: 12px&quot;&gt;&lt;/font&gt;" id="0uZ7unWX9YPgCVN430QD-34">
          <mxCell style="rounded=0;whiteSpace=wrap;html=1;strokeWidth=1;fillColor=#d5e8d4;fontSize=12;align=center;horizontal=1;verticalAlign=middle;arcSize=6;container=0;absoluteArcSize=1;recursiveResize=0;strokeColor=#82b366;" vertex="1" parent="0uZ7unWX9YPgCVN430QD-1">
            <mxGeometry x="560" y="539.5" width="120" height="40" as="geometry" />
          </mxCell>
        </UserObject>
        <UserObject label="&lt;font style=&quot;font-size: 12px&quot;&gt;Unchangeable&lt;br&gt;Functionality&lt;br style=&quot;font-size: 12px&quot;&gt;&lt;/font&gt;" id="0uZ7unWX9YPgCVN430QD-35">
          <mxCell style="rounded=0;whiteSpace=wrap;html=1;strokeWidth=1;fillColor=#f8cecc;fontSize=12;align=center;horizontal=1;verticalAlign=middle;arcSize=6;container=0;absoluteArcSize=1;recursiveResize=0;strokeColor=#b85450;" vertex="1" parent="0uZ7unWX9YPgCVN430QD-1">
            <mxGeometry x="190" y="588" width="80" height="40" as="geometry" />
          </mxCell>
        </UserObject>
        <UserObject label="&lt;font style=&quot;font-size: 12px&quot;&gt;Needs training sessions&lt;br style=&quot;font-size: 12px&quot;&gt;&lt;/font&gt;" id="0uZ7unWX9YPgCVN430QD-36">
          <mxCell style="rounded=0;whiteSpace=wrap;html=1;strokeWidth=1;fillColor=#f8cecc;fontSize=12;align=center;horizontal=1;verticalAlign=middle;arcSize=6;container=0;absoluteArcSize=1;recursiveResize=0;strokeColor=#b85450;" vertex="1" parent="0uZ7unWX9YPgCVN430QD-1">
            <mxGeometry x="190" y="689" width="80" height="40" as="geometry" />
          </mxCell>
        </UserObject>
        <UserObject label="&lt;font style=&quot;font-size: 12px&quot;&gt;Usable from office desktops&lt;br style=&quot;font-size: 12px&quot;&gt;&lt;/font&gt;" id="0uZ7unWX9YPgCVN430QD-37">
          <mxCell style="rounded=0;whiteSpace=wrap;html=1;strokeWidth=1;fillColor=#FFFFFF;fontSize=12;align=center;horizontal=1;verticalAlign=middle;arcSize=6;container=0;absoluteArcSize=1;recursiveResize=0;" vertex="1" parent="0uZ7unWX9YPgCVN430QD-1">
            <mxGeometry x="390" y="690" width="80" height="40" as="geometry" />
          </mxCell>
        </UserObject>
        <UserObject label="&lt;font style=&quot;font-size: 12px&quot;&gt;Usable from mobiles&lt;br style=&quot;font-size: 12px&quot;&gt;&lt;/font&gt;" id="0uZ7unWX9YPgCVN430QD-38">
          <mxCell style="rounded=0;whiteSpace=wrap;html=1;strokeWidth=1;fillColor=#FFFFFF;fontSize=12;align=center;horizontal=1;verticalAlign=middle;arcSize=6;container=0;absoluteArcSize=1;recursiveResize=0;" vertex="1" parent="0uZ7unWX9YPgCVN430QD-1">
            <mxGeometry x="480" y="690" width="50" height="40" as="geometry" />
          </mxCell>
        </UserObject>
        <UserObject label="&lt;font style=&quot;font-size: 12px&quot;&gt;Designed for mobiles first&lt;br style=&quot;font-size: 12px&quot;&gt;&lt;/font&gt;" id="0uZ7unWX9YPgCVN430QD-39">
          <mxCell style="rounded=0;whiteSpace=wrap;html=1;strokeWidth=1;fillColor=#D5E8D4;fontSize=12;align=center;horizontal=1;verticalAlign=middle;arcSize=6;container=0;absoluteArcSize=1;recursiveResize=0;gradientColor=#ffffff;gradientDirection=west;strokeColor=#82B366;" vertex="1" parent="0uZ7unWX9YPgCVN430QD-1">
            <mxGeometry x="540" y="690" width="70" height="40" as="geometry" />
          </mxCell>
        </UserObject>
        <UserObject label="&lt;font style=&quot;font-size: 12px&quot;&gt;Meets Usability &amp;amp; Accessibility standards&lt;br style=&quot;font-size: 12px&quot;&gt;&lt;/font&gt;" id="0uZ7unWX9YPgCVN430QD-40">
          <mxCell style="rounded=0;whiteSpace=wrap;html=1;strokeWidth=1;fillColor=#F8CECC;fontSize=12;align=center;horizontal=1;verticalAlign=middle;arcSize=6;container=0;absoluteArcSize=1;recursiveResize=0;gradientColor=#FFFFFF;gradientDirection=east;strokeColor=#B85450;" vertex="1" parent="0uZ7unWX9YPgCVN430QD-1">
            <mxGeometry x="280" y="690" width="100" height="40" as="geometry" />
          </mxCell>
        </UserObject>
        <UserObject label="&lt;font style=&quot;font-size: 12px&quot;&gt;Designed for Voice&lt;br style=&quot;font-size: 12px&quot;&gt;&lt;/font&gt;" id="0uZ7unWX9YPgCVN430QD-41">
          <mxCell style="rounded=0;whiteSpace=wrap;html=1;strokeWidth=1;fillColor=#d5e8d4;fontSize=12;align=center;horizontal=1;verticalAlign=middle;arcSize=6;container=0;absoluteArcSize=1;recursiveResize=0;strokeColor=#82b366;" vertex="1" parent="0uZ7unWX9YPgCVN430QD-1">
            <mxGeometry x="620" y="690" width="60" height="40" as="geometry" />
          </mxCell>
        </UserObject>
        <UserObject label="&lt;font style=&quot;font-size: 12px&quot;&gt;Landing page is findable&lt;br style=&quot;font-size: 12px&quot;&gt;&lt;/font&gt;" id="0uZ7unWX9YPgCVN430QD-42">
          <mxCell style="rounded=0;whiteSpace=wrap;html=1;strokeWidth=1;fillColor=#f8cecc;fontSize=12;align=center;horizontal=1;verticalAlign=middle;arcSize=6;container=0;absoluteArcSize=1;recursiveResize=0;strokeColor=#b85450;" vertex="1" parent="0uZ7unWX9YPgCVN430QD-1">
            <mxGeometry x="190" y="740" width="80" height="40" as="geometry" />
          </mxCell>
        </UserObject>
        <UserObject label="&lt;font style=&quot;font-size: 12px&quot;&gt;Public pages are SEO&#39;ed.&lt;br style=&quot;font-size: 12px&quot;&gt;&lt;/font&gt;" id="0uZ7unWX9YPgCVN430QD-43">
          <mxCell style="rounded=0;whiteSpace=wrap;html=1;strokeWidth=1;fillColor=#F8CECC;fontSize=12;align=center;horizontal=1;verticalAlign=middle;arcSize=6;container=0;absoluteArcSize=1;recursiveResize=0;gradientColor=#FFFFFF;gradientDirection=east;strokeColor=#B85450;" vertex="1" parent="0uZ7unWX9YPgCVN430QD-1">
            <mxGeometry x="280" y="740" width="80" height="40" as="geometry" />
          </mxCell>
        </UserObject>
        <UserObject label="&lt;font style=&quot;font-size: 12px&quot;&gt;Pages are Deep link SEO&#39;ed.&lt;br style=&quot;font-size: 12px&quot;&gt;&lt;/font&gt;" id="0uZ7unWX9YPgCVN430QD-44">
          <mxCell style="rounded=0;whiteSpace=wrap;html=1;strokeWidth=1;fillColor=#FFFFFF;fontSize=12;align=center;horizontal=1;verticalAlign=middle;arcSize=6;container=0;absoluteArcSize=1;recursiveResize=0;" vertex="1" parent="0uZ7unWX9YPgCVN430QD-1">
            <mxGeometry x="370" y="740" width="80" height="40" as="geometry" />
          </mxCell>
        </UserObject>
        <UserObject label="&lt;font style=&quot;font-size: 12px&quot;&gt;System also has internal Search&lt;br style=&quot;font-size: 12px&quot;&gt;&lt;/font&gt;" id="0uZ7unWX9YPgCVN430QD-45">
          <mxCell style="rounded=0;whiteSpace=wrap;html=1;strokeWidth=1;fillColor=#D5E8D4;fontSize=12;align=center;horizontal=1;verticalAlign=middle;arcSize=6;container=0;absoluteArcSize=1;recursiveResize=0;gradientColor=#ffffff;gradientDirection=west;strokeColor=#82B366;" vertex="1" parent="0uZ7unWX9YPgCVN430QD-1">
            <mxGeometry x="460" y="740" width="70" height="40" as="geometry" />
          </mxCell>
        </UserObject>
        <UserObject label="&lt;font style=&quot;font-size: 12px&quot;&gt;System provides user-identity based internal Recommendation engine&lt;br style=&quot;font-size: 12px&quot;&gt;&lt;/font&gt;" id="0uZ7unWX9YPgCVN430QD-46">
          <mxCell style="rounded=0;whiteSpace=wrap;html=1;strokeWidth=1;fillColor=#d5e8d4;fontSize=12;align=center;horizontal=1;verticalAlign=middle;arcSize=6;container=0;absoluteArcSize=1;recursiveResize=0;strokeColor=#82b366;" vertex="1" parent="0uZ7unWX9YPgCVN430QD-1">
            <mxGeometry x="540" y="740" width="140" height="40" as="geometry" />
          </mxCell>
        </UserObject>
        <UserObject label="&lt;font style=&quot;font-size: 12px&quot;&gt;Single VM based&amp;nbsp; system&lt;br style=&quot;font-size: 12px&quot;&gt;&lt;/font&gt;" id="0uZ7unWX9YPgCVN430QD-47">
          <mxCell style="rounded=0;whiteSpace=wrap;html=1;strokeWidth=1;fillColor=#f8cecc;fontSize=12;align=center;horizontal=1;verticalAlign=middle;arcSize=6;container=0;absoluteArcSize=1;recursiveResize=0;strokeColor=#b85450;" vertex="1" parent="0uZ7unWX9YPgCVN430QD-1">
            <mxGeometry x="190" y="790" width="80" height="40" as="geometry" />
          </mxCell>
        </UserObject>
        <UserObject label="&lt;font style=&quot;font-size: 12px&quot;&gt;Cloud based PaaS&lt;br style=&quot;font-size: 12px&quot;&gt;&lt;/font&gt;" id="0uZ7unWX9YPgCVN430QD-48">
          <mxCell style="rounded=0;whiteSpace=wrap;html=1;strokeWidth=1;fillColor=#FFFFFF;fontSize=12;align=center;horizontal=1;verticalAlign=middle;arcSize=6;container=0;absoluteArcSize=1;recursiveResize=0;" vertex="1" parent="0uZ7unWX9YPgCVN430QD-1">
            <mxGeometry x="450" y="790" width="50" height="40" as="geometry" />
          </mxCell>
        </UserObject>
        <UserObject label="&lt;font style=&quot;font-size: 12px&quot;&gt;Cloud based Multi-Tenant SaaS&lt;br style=&quot;font-size: 12px&quot;&gt;&lt;/font&gt;" id="0uZ7unWX9YPgCVN430QD-49">
          <mxCell style="rounded=0;whiteSpace=wrap;html=1;strokeWidth=1;fillColor=#d5e8d4;fontSize=12;align=center;horizontal=1;verticalAlign=middle;arcSize=6;container=0;absoluteArcSize=1;recursiveResize=0;strokeColor=#82b366;" vertex="1" parent="0uZ7unWX9YPgCVN430QD-1">
            <mxGeometry x="600" y="790" width="80" height="40" as="geometry" />
          </mxCell>
        </UserObject>
        <UserObject label="&lt;font style=&quot;font-size: 9px;&quot;&gt;Dynamic horizontally scalable (&lt;/font&gt;&lt;font style=&quot;font-size: 9px;&quot;&gt;&lt;font style=&quot;font-size: 9px;&quot;&gt;PaaS)&lt;/font&gt;&lt;br style=&quot;font-size: 9px;&quot;&gt;&lt;/font&gt;" id="0uZ7unWX9YPgCVN430QD-50">
          <mxCell style="rounded=0;whiteSpace=wrap;html=1;strokeWidth=1;fillColor=#FFFFFF;fontSize=9;align=center;horizontal=1;verticalAlign=middle;arcSize=6;container=0;absoluteArcSize=1;recursiveResize=0;" vertex="1" parent="0uZ7unWX9YPgCVN430QD-1">
            <mxGeometry x="370" y="790" width="70" height="40" as="geometry" />
          </mxCell>
        </UserObject>
        <UserObject label="&lt;font style=&quot;font-size: 12px&quot;&gt;Redundant/&lt;br&gt;standby servers&lt;br style=&quot;font-size: 12px&quot;&gt;&lt;/font&gt;" id="0uZ7unWX9YPgCVN430QD-51">
          <mxCell style="rounded=0;whiteSpace=wrap;html=1;strokeWidth=1;fillColor=#F8CECC;fontSize=12;align=center;horizontal=1;verticalAlign=middle;arcSize=6;container=0;absoluteArcSize=1;recursiveResize=0;gradientColor=#FFFFFF;gradientDirection=east;" vertex="1" parent="0uZ7unWX9YPgCVN430QD-1">
            <mxGeometry x="280" y="790" width="80" height="40" as="geometry" />
          </mxCell>
        </UserObject>
        <UserObject label="&lt;font style=&quot;font-size: 12px&quot;&gt;Cloud based customized SaaS&lt;br style=&quot;font-size: 12px&quot;&gt;&lt;/font&gt;" id="0uZ7unWX9YPgCVN430QD-52">
          <mxCell style="rounded=0;whiteSpace=wrap;html=1;strokeWidth=1;fillColor=#D5E8D4;fontSize=12;align=center;horizontal=1;verticalAlign=middle;arcSize=6;container=0;absoluteArcSize=1;recursiveResize=0;gradientColor=#ffffff;gradientDirection=west;strokeColor=#82B366;" vertex="1" parent="0uZ7unWX9YPgCVN430QD-1">
            <mxGeometry x="510" y="790" width="80" height="40" as="geometry" />
          </mxCell>
        </UserObject>
        <UserObject label="&lt;font style=&quot;font-size: 12px&quot;&gt;Has a builtin monitoring Dashboard&lt;br style=&quot;font-size: 12px&quot;&gt;&lt;/font&gt;" id="0uZ7unWX9YPgCVN430QD-53">
          <mxCell style="rounded=0;whiteSpace=wrap;html=1;strokeWidth=1;fillColor=#D5E8D4;fontSize=12;align=center;horizontal=1;verticalAlign=middle;arcSize=6;container=0;absoluteArcSize=1;recursiveResize=0;gradientColor=#ffffff;gradientDirection=west;strokeColor=#82B366;" vertex="1" parent="0uZ7unWX9YPgCVN430QD-1">
            <mxGeometry x="370" y="840" width="80" height="40" as="geometry" />
          </mxCell>
        </UserObject>
        <UserObject label="&lt;font style=&quot;font-size: 12px&quot;&gt;Cloud infrastructure is monitorable&lt;br style=&quot;font-size: 12px&quot;&gt;&lt;/font&gt;" id="0uZ7unWX9YPgCVN430QD-54">
          <mxCell style="rounded=0;whiteSpace=wrap;html=1;strokeWidth=1;fillColor=#F8CECC;fontSize=12;align=center;horizontal=1;verticalAlign=middle;arcSize=6;container=0;absoluteArcSize=1;recursiveResize=0;gradientColor=#FFFFFF;gradientDirection=east;strokeColor=#B85450;" vertex="1" parent="0uZ7unWX9YPgCVN430QD-1">
            <mxGeometry x="280" y="840" width="80" height="40" as="geometry" />
          </mxCell>
        </UserObject>
        <UserObject label="&lt;font style=&quot;font-size: 12px&quot;&gt;Monitoring/ alerting is coming&lt;br style=&quot;font-size: 12px&quot;&gt;&lt;/font&gt;" id="0uZ7unWX9YPgCVN430QD-55">
          <mxCell style="rounded=0;whiteSpace=wrap;html=1;strokeWidth=1;fillColor=#f8cecc;fontSize=12;align=center;horizontal=1;verticalAlign=middle;arcSize=6;container=0;absoluteArcSize=1;recursiveResize=0;strokeColor=#b85450;" vertex="1" parent="0uZ7unWX9YPgCVN430QD-1">
            <mxGeometry x="190" y="840" width="80" height="40" as="geometry" />
          </mxCell>
        </UserObject>
        <UserObject label="&lt;font style=&quot;font-size: 12px&quot;&gt;Requires special configuration&lt;br style=&quot;font-size: 12px&quot;&gt;&lt;/font&gt;" id="0uZ7unWX9YPgCVN430QD-56">
          <mxCell style="rounded=0;whiteSpace=wrap;html=1;strokeWidth=1;fillColor=#FFFFFF;fontSize=12;align=center;horizontal=1;verticalAlign=middle;arcSize=6;container=0;absoluteArcSize=1;recursiveResize=0;" vertex="1" parent="0uZ7unWX9YPgCVN430QD-1">
            <mxGeometry x="370" y="940" width="80" height="40" as="geometry" />
          </mxCell>
        </UserObject>
        <UserObject label="&lt;font style=&quot;font-size: 12px&quot;&gt;Uses standard configurations&lt;br style=&quot;font-size: 12px&quot;&gt;&lt;/font&gt;" id="0uZ7unWX9YPgCVN430QD-57">
          <mxCell style="rounded=0;whiteSpace=wrap;html=1;strokeWidth=1;fillColor=#D5E8D4;fontSize=12;align=center;horizontal=1;verticalAlign=middle;arcSize=6;container=0;absoluteArcSize=1;recursiveResize=0;gradientColor=#ffffff;gradientDirection=west;strokeColor=#82B366;" vertex="1" parent="0uZ7unWX9YPgCVN430QD-1">
            <mxGeometry x="460" y="940" width="80" height="40" as="geometry" />
          </mxCell>
        </UserObject>
        <UserObject label="&lt;font style=&quot;font-size: 12px&quot;&gt;Has Low resource and license needs&lt;br style=&quot;font-size: 12px&quot;&gt;&lt;/font&gt;" id="0uZ7unWX9YPgCVN430QD-58">
          <mxCell style="rounded=0;whiteSpace=wrap;html=1;strokeWidth=1;fillColor=#d5e8d4;fontSize=12;align=center;horizontal=1;verticalAlign=middle;arcSize=6;container=0;absoluteArcSize=1;recursiveResize=0;strokeColor=#82b366;" vertex="1" parent="0uZ7unWX9YPgCVN430QD-1">
            <mxGeometry x="550" y="940" width="130" height="40" as="geometry" />
          </mxCell>
        </UserObject>
        <UserObject label="&lt;font style=&quot;font-size: 12px&quot;&gt;Requires custom development&lt;br style=&quot;font-size: 12px&quot;&gt;&lt;/font&gt;" id="0uZ7unWX9YPgCVN430QD-59">
          <mxCell style="rounded=0;whiteSpace=wrap;html=1;strokeWidth=1;fillColor=#f8cecc;fontSize=12;align=center;horizontal=1;verticalAlign=middle;arcSize=6;container=0;absoluteArcSize=1;recursiveResize=0;strokeColor=#b85450;" vertex="1" parent="0uZ7unWX9YPgCVN430QD-1">
            <mxGeometry x="190" y="940" width="80" height="40" as="geometry" />
          </mxCell>
        </UserObject>
        <UserObject label="&lt;font style=&quot;font-size: 12px&quot;&gt;Requires expensive licenses&lt;br style=&quot;font-size: 12px&quot;&gt;&lt;/font&gt;" id="0uZ7unWX9YPgCVN430QD-60">
          <mxCell style="rounded=0;whiteSpace=wrap;html=1;strokeWidth=1;fillColor=#F8CECC;fontSize=12;align=center;horizontal=1;verticalAlign=middle;arcSize=6;container=0;absoluteArcSize=1;recursiveResize=0;gradientColor=#FFFFFF;gradientDirection=east;strokeColor=#B85450;" vertex="1" parent="0uZ7unWX9YPgCVN430QD-1">
            <mxGeometry x="280" y="940" width="80" height="40" as="geometry" />
          </mxCell>
        </UserObject>
        <UserObject label="No Help system offered" id="0uZ7unWX9YPgCVN430QD-61">
          <mxCell style="rounded=0;whiteSpace=wrap;html=1;strokeWidth=1;fillColor=#f8cecc;fontSize=12;align=center;horizontal=1;verticalAlign=middle;arcSize=6;container=0;absoluteArcSize=1;recursiveResize=0;strokeColor=#b85450;" vertex="1" parent="0uZ7unWX9YPgCVN430QD-1">
            <mxGeometry x="190" y="1040" width="80" height="40" as="geometry" />
          </mxCell>
        </UserObject>
        <UserObject label="&lt;font style=&quot;font-size: 12px&quot;&gt;Link to ext. help document&lt;br style=&quot;font-size: 12px&quot;&gt;&lt;/font&gt;" id="0uZ7unWX9YPgCVN430QD-62">
          <mxCell style="rounded=0;whiteSpace=wrap;html=1;strokeWidth=1;fillColor=#F8CECC;fontSize=12;align=center;horizontal=1;verticalAlign=middle;arcSize=6;container=0;absoluteArcSize=1;recursiveResize=0;gradientColor=#FFFFFF;gradientDirection=east;strokeColor=#B85450;" vertex="1" parent="0uZ7unWX9YPgCVN430QD-1">
            <mxGeometry x="280" y="1040" width="80" height="40" as="geometry" />
          </mxCell>
        </UserObject>
        <UserObject label="&lt;font style=&quot;font-size: 12px&quot;&gt;In-System Help&lt;br style=&quot;font-size: 12px&quot;&gt;&lt;/font&gt;" id="0uZ7unWX9YPgCVN430QD-63">
          <mxCell style="rounded=0;whiteSpace=wrap;html=1;strokeWidth=1;fillColor=#FFFFFF;fontSize=12;align=center;horizontal=1;verticalAlign=middle;arcSize=6;container=0;absoluteArcSize=1;recursiveResize=0;" vertex="1" parent="0uZ7unWX9YPgCVN430QD-1">
            <mxGeometry x="370" y="1040" width="80" height="40" as="geometry" />
          </mxCell>
        </UserObject>
        <UserObject label="&lt;font style=&quot;font-size: 12px&quot;&gt;In-page configurable tips&lt;br style=&quot;font-size: 12px&quot;&gt;&lt;/font&gt;" id="0uZ7unWX9YPgCVN430QD-64">
          <mxCell style="rounded=0;whiteSpace=wrap;html=1;strokeWidth=1;fillColor=#D5E8D4;fontSize=12;align=center;horizontal=1;verticalAlign=middle;arcSize=6;container=0;absoluteArcSize=1;recursiveResize=0;gradientColor=#ffffff;gradientDirection=west;strokeColor=#82B366;" vertex="1" parent="0uZ7unWX9YPgCVN430QD-1">
            <mxGeometry x="460" y="1040" width="80" height="40" as="geometry" />
          </mxCell>
        </UserObject>
        <UserObject label="&lt;font style=&quot;font-size: 12px&quot;&gt;Can export some data via APIs&lt;br style=&quot;font-size: 12px&quot;&gt;&lt;/font&gt;" id="0uZ7unWX9YPgCVN430QD-65">
          <mxCell style="rounded=0;whiteSpace=wrap;html=1;strokeWidth=1;fillColor=#FFFFFF;fontSize=12;align=center;horizontal=1;verticalAlign=middle;arcSize=6;container=0;absoluteArcSize=1;recursiveResize=0;" vertex="1" parent="0uZ7unWX9YPgCVN430QD-1">
            <mxGeometry x="370" y="890" width="80" height="40" as="geometry" />
          </mxCell>
        </UserObject>
        <UserObject label="&lt;font style=&quot;font-size: 12px&quot;&gt;Can export all data via APIs&lt;br style=&quot;font-size: 12px&quot;&gt;&lt;/font&gt;" id="0uZ7unWX9YPgCVN430QD-66">
          <mxCell style="rounded=0;whiteSpace=wrap;html=1;strokeWidth=1;fillColor=#D5E8D4;fontSize=12;align=center;horizontal=1;verticalAlign=middle;arcSize=6;container=0;absoluteArcSize=1;recursiveResize=0;gradientColor=#ffffff;gradientDirection=west;strokeColor=#82B366;" vertex="1" parent="0uZ7unWX9YPgCVN430QD-1">
            <mxGeometry x="460" y="890" width="80" height="40" as="geometry" />
          </mxCell>
        </UserObject>
        <UserObject label="&lt;font style=&quot;font-size: 12px&quot;&gt;Can export data via per-user backup&lt;br style=&quot;font-size: 12px&quot;&gt;&lt;/font&gt;" id="0uZ7unWX9YPgCVN430QD-67">
          <mxCell style="rounded=0;whiteSpace=wrap;html=1;strokeWidth=1;fillColor=#F8CECC;fontSize=12;align=center;horizontal=1;verticalAlign=middle;arcSize=6;container=0;absoluteArcSize=1;recursiveResize=0;gradientColor=#FFFFFF;gradientDirection=east;strokeColor=#B85450;" vertex="1" parent="0uZ7unWX9YPgCVN430QD-1">
            <mxGeometry x="280" y="890" width="80" height="40" as="geometry" />
          </mxCell>
        </UserObject>
        <UserObject label="&lt;font style=&quot;font-size: 12px&quot;&gt;(Shared) backups are not offered&lt;br style=&quot;font-size: 12px&quot;&gt;&lt;/font&gt;" id="0uZ7unWX9YPgCVN430QD-68">
          <mxCell style="rounded=0;whiteSpace=wrap;html=1;strokeWidth=1;fillColor=#f8cecc;fontSize=12;align=center;horizontal=1;verticalAlign=middle;arcSize=6;container=0;absoluteArcSize=1;recursiveResize=0;strokeColor=#b85450;" vertex="1" parent="0uZ7unWX9YPgCVN430QD-1">
            <mxGeometry x="190" y="890" width="80" height="40" as="geometry" />
          </mxCell>
        </UserObject>
        <UserObject label="&lt;font style=&quot;font-size: 12px&quot;&gt;Import/Export APIs provide Standards based formats.&lt;br style=&quot;font-size: 12px&quot;&gt;&lt;/font&gt;" id="0uZ7unWX9YPgCVN430QD-69">
          <mxCell style="rounded=0;whiteSpace=wrap;html=1;strokeWidth=1;fillColor=#d5e8d4;fontSize=12;align=center;horizontal=1;verticalAlign=middle;arcSize=6;container=0;absoluteArcSize=1;recursiveResize=0;strokeColor=#82b366;" vertex="1" parent="0uZ7unWX9YPgCVN430QD-1">
            <mxGeometry x="550" y="890" width="130" height="40" as="geometry" />
          </mxCell>
        </UserObject>
        <UserObject label="&lt;font style=&quot;font-size: 12px&quot;&gt;Users onboarded by vendor.&lt;br style=&quot;font-size: 12px&quot;&gt;&lt;/font&gt;" id="0uZ7unWX9YPgCVN430QD-70">
          <mxCell style="rounded=0;whiteSpace=wrap;html=1;strokeWidth=1;fillColor=#f8cecc;fontSize=12;align=center;horizontal=1;verticalAlign=middle;arcSize=6;container=0;absoluteArcSize=1;recursiveResize=0;strokeColor=#b85450;" vertex="1" parent="0uZ7unWX9YPgCVN430QD-1">
            <mxGeometry x="190" y="990" width="80" height="40" as="geometry" />
          </mxCell>
        </UserObject>
        <UserObject label="&lt;font style=&quot;font-size: 12px&quot;&gt;Users imported by hand&amp;nbsp;&lt;/font&gt;&lt;font&gt;&lt;font style=&quot;font-size: 8px&quot;&gt;(SQL.CSV).&lt;/font&gt;&lt;br style=&quot;font-size: 12px&quot;&gt;&lt;/font&gt;" id="0uZ7unWX9YPgCVN430QD-71">
          <mxCell style="rounded=0;whiteSpace=wrap;html=1;strokeWidth=1;fillColor=#F8CECC;fontSize=12;align=center;horizontal=1;verticalAlign=middle;arcSize=6;container=0;absoluteArcSize=1;recursiveResize=0;gradientColor=#FFFFFF;gradientDirection=east;strokeColor=#B85450;" vertex="1" parent="0uZ7unWX9YPgCVN430QD-1">
            <mxGeometry x="280" y="990" width="80" height="40" as="geometry" />
          </mxCell>
        </UserObject>
        <UserObject label="&lt;font style=&quot;font-size: 12px&quot;&gt;Onboarding functionality provided&lt;/font&gt;&lt;font&gt;&lt;font style=&quot;font-size: 10px&quot;&gt; (UX)&lt;/font&gt;&lt;br style=&quot;font-size: 12px&quot;&gt;&lt;/font&gt;" id="0uZ7unWX9YPgCVN430QD-72">
          <mxCell style="rounded=0;whiteSpace=wrap;html=1;strokeWidth=1;fillColor=#FFFFFF;fontSize=12;align=center;horizontal=1;verticalAlign=middle;arcSize=6;container=0;absoluteArcSize=1;recursiveResize=0;" vertex="1" parent="0uZ7unWX9YPgCVN430QD-1">
            <mxGeometry x="370" y="990" width="80" height="40" as="geometry" />
          </mxCell>
        </UserObject>
        <UserObject label="&lt;font style=&quot;font-size: 12px&quot;&gt;SCIM&lt;br&gt;compliant&lt;br style=&quot;font-size: 12px&quot;&gt;&lt;/font&gt;" id="0uZ7unWX9YPgCVN430QD-73">
          <mxCell style="rounded=0;whiteSpace=wrap;html=1;strokeWidth=1;fillColor=#d5e8d4;fontSize=12;align=center;horizontal=1;verticalAlign=middle;arcSize=6;container=0;absoluteArcSize=1;recursiveResize=0;strokeColor=#82b366;" vertex="1" parent="0uZ7unWX9YPgCVN430QD-1">
            <mxGeometry x="620" y="990" width="60" height="40" as="geometry" />
          </mxCell>
        </UserObject>
        <mxCell id="0uZ7unWX9YPgCVN430QD-74" value="&lt;b&gt;Functionality&lt;br&gt;&lt;/b&gt;" style="rounded=1;align=center;fillColor=#F1F2F4;strokeColor=none;html=1;fontColor=#596780;fontSize=12;shadow=0;labelBackgroundColor=none;rotation=0;horizontal=0;" vertex="1" parent="0uZ7unWX9YPgCVN430QD-1">
          <mxGeometry x="160" y="540" width="23" height="140" as="geometry" />
        </mxCell>
        <mxCell id="0uZ7unWX9YPgCVN430QD-75" value="&lt;b&gt;Security&lt;br&gt;&lt;/b&gt;" style="rounded=1;align=center;fillColor=#F1F2F4;strokeColor=none;html=1;fontColor=#596780;fontSize=12;shadow=0;labelBackgroundColor=none;rotation=0;horizontal=0;" vertex="1" parent="0uZ7unWX9YPgCVN430QD-1">
          <mxGeometry x="160" y="190" width="23" height="340" as="geometry" />
        </mxCell>
        <mxCell id="0uZ7unWX9YPgCVN430QD-76" value="&lt;b&gt;Usability&lt;br&gt;&lt;/b&gt;" style="rounded=1;align=center;fillColor=#F1F2F4;strokeColor=none;html=1;fontColor=#596780;fontSize=12;shadow=0;labelBackgroundColor=none;rotation=0;horizontal=0;" vertex="1" parent="0uZ7unWX9YPgCVN430QD-1">
          <mxGeometry x="158.5" y="690" width="23" height="90" as="geometry" />
        </mxCell>
        <mxCell id="0uZ7unWX9YPgCVN430QD-77" value="&lt;b&gt;Maintainability&lt;br&gt;&lt;/b&gt;" style="rounded=1;align=center;fillColor=#F1F2F4;strokeColor=none;html=1;fontColor=#596780;fontSize=12;shadow=0;labelBackgroundColor=none;rotation=0;horizontal=0;" vertex="1" parent="0uZ7unWX9YPgCVN430QD-1">
          <mxGeometry x="160" y="790" width="23" height="190" as="geometry" />
        </mxCell>
        <mxCell id="0uZ7unWX9YPgCVN430QD-78" value="&lt;b&gt;Operability&lt;br&gt;&lt;/b&gt;" style="rounded=1;align=center;fillColor=#F1F2F4;strokeColor=none;html=1;fontColor=#596780;fontSize=12;shadow=0;labelBackgroundColor=none;rotation=0;horizontal=0;" vertex="1" parent="0uZ7unWX9YPgCVN430QD-1">
          <mxGeometry x="160" y="990" width="23" height="90" as="geometry" />
        </mxCell>
        <UserObject label="&lt;font style=&quot;font-size: 12px&quot;&gt;Client admin customizable&lt;br style=&quot;font-size: 12px&quot;&gt;&lt;/font&gt;" id="0uZ7unWX9YPgCVN430QD-79">
          <mxCell style="rounded=0;whiteSpace=wrap;html=1;strokeWidth=1;fillColor=#FFFFFF;fontSize=12;align=center;horizontal=1;verticalAlign=middle;arcSize=6;container=0;absoluteArcSize=1;recursiveResize=0;gradientColor=none;gradientDirection=west;" vertex="1" parent="0uZ7unWX9YPgCVN430QD-1">
            <mxGeometry x="370" y="590" width="80" height="40" as="geometry" />
          </mxCell>
        </UserObject>
        <UserObject label="&lt;font style=&quot;font-size: 12px&quot;&gt;End user customizable&lt;br style=&quot;font-size: 12px&quot;&gt;&lt;/font&gt;" id="0uZ7unWX9YPgCVN430QD-80">
          <mxCell style="rounded=0;whiteSpace=wrap;html=1;strokeWidth=1;fillColor=#d5e8d4;fontSize=12;align=center;horizontal=1;verticalAlign=middle;arcSize=6;container=0;absoluteArcSize=1;recursiveResize=0;strokeColor=#82B366;gradientColor=#ffffff;gradientDirection=west;" vertex="1" parent="0uZ7unWX9YPgCVN430QD-1">
            <mxGeometry x="460" y="590" width="80" height="40" as="geometry" />
          </mxCell>
        </UserObject>
        <UserObject label="&lt;font style=&quot;font-size: 12px&quot;&gt;Vendor/&lt;br&gt;Reseller customizable&lt;br style=&quot;font-size: 12px&quot;&gt;&lt;/font&gt;" id="0uZ7unWX9YPgCVN430QD-81">
          <mxCell style="rounded=0;whiteSpace=wrap;html=1;strokeWidth=1;fillColor=#F8CECC;fontSize=12;align=center;horizontal=1;verticalAlign=middle;arcSize=6;container=0;absoluteArcSize=1;recursiveResize=0;gradientColor=#FFFFFF;gradientDirection=east;strokeColor=#B85450;" vertex="1" parent="0uZ7unWX9YPgCVN430QD-1">
            <mxGeometry x="280" y="590" width="80" height="40" as="geometry" />
          </mxCell>
        </UserObject>
        <UserObject label="Auditing of authenticated users ops" id="0uZ7unWX9YPgCVN430QD-82">
          <mxCell style="rounded=0;whiteSpace=wrap;html=1;strokeWidth=1;fillColor=#FFFFFF;fontSize=12;align=center;horizontal=1;verticalAlign=middle;arcSize=6;container=0;absoluteArcSize=1;recursiveResize=0;" vertex="1" parent="0uZ7unWX9YPgCVN430QD-1">
            <mxGeometry x="370" y="290" width="80" height="40" as="geometry" />
          </mxCell>
        </UserObject>
        <UserObject label="All Ops (incl Views) by Authenticated and anon users are audited" id="0uZ7unWX9YPgCVN430QD-83">
          <mxCell style="rounded=0;whiteSpace=wrap;html=1;strokeWidth=1;fillColor=#d5e8d4;fontSize=12;align=center;horizontal=1;verticalAlign=middle;arcSize=6;container=0;absoluteArcSize=1;recursiveResize=0;strokeColor=#82b366;" vertex="1" parent="0uZ7unWX9YPgCVN430QD-1">
            <mxGeometry x="550" y="290" width="130" height="40" as="geometry" />
          </mxCell>
        </UserObject>
        <UserObject label="Auditing of all users (incl. anon users)" id="0uZ7unWX9YPgCVN430QD-84">
          <mxCell style="rounded=0;whiteSpace=wrap;html=1;strokeWidth=1;fillColor=#D5E8D4;fontSize=12;align=center;horizontal=1;verticalAlign=middle;arcSize=6;container=0;absoluteArcSize=1;recursiveResize=0;gradientColor=#ffffff;gradientDirection=west;strokeColor=#82B366;" vertex="1" parent="0uZ7unWX9YPgCVN430QD-1">
            <mxGeometry x="460" y="290" width="80" height="40" as="geometry" />
          </mxCell>
        </UserObject>
        <UserObject label="No AV/validation of media/text" id="0uZ7unWX9YPgCVN430QD-85">
          <mxCell style="rounded=0;whiteSpace=wrap;html=1;strokeWidth=1;fillColor=#f8cecc;fontSize=12;align=center;horizontal=1;verticalAlign=middle;arcSize=6;container=0;absoluteArcSize=1;recursiveResize=0;strokeColor=#b85450;" vertex="1" parent="0uZ7unWX9YPgCVN430QD-1">
            <mxGeometry x="190" y="290" width="80" height="40" as="geometry" />
          </mxCell>
        </UserObject>
        <UserObject label="&lt;font style=&quot;font-size: 12px&quot;&gt;External-only&lt;br&gt;Role Based Control&lt;br style=&quot;font-size: 12px&quot;&gt;&lt;/font&gt;" id="0uZ7unWX9YPgCVN430QD-86">
          <mxCell style="rounded=0;whiteSpace=wrap;html=1;strokeWidth=1;fillColor=#f8cecc;fontSize=12;align=center;horizontal=1;verticalAlign=middle;arcSize=6;container=0;absoluteArcSize=1;recursiveResize=0;strokeColor=#b85450;" vertex="1" parent="0uZ7unWX9YPgCVN430QD-1">
            <mxGeometry x="190" y="340" width="80" height="40" as="geometry" />
          </mxCell>
        </UserObject>
        <UserObject label="&lt;font style=&quot;font-size: 12px&quot;&gt;In-System Fixed &lt;br&gt;Role Based&lt;br style=&quot;font-size: 12px&quot;&gt;&lt;/font&gt;" id="0uZ7unWX9YPgCVN430QD-87">
          <mxCell style="rounded=0;whiteSpace=wrap;html=1;strokeWidth=1;fillColor=#F8CECC;fontSize=12;align=center;horizontal=1;verticalAlign=middle;arcSize=6;container=0;absoluteArcSize=1;recursiveResize=0;gradientColor=#FFFFFF;gradientDirection=east;strokeColor=#B85450;" vertex="1" parent="0uZ7unWX9YPgCVN430QD-1">
            <mxGeometry x="280" y="340" width="80" height="40" as="geometry" />
          </mxCell>
        </UserObject>
        <UserObject label="&lt;font style=&quot;font-size: 12px&quot;&gt;In-System Permissions&amp;nbsp;&lt;br&gt;Based&lt;br style=&quot;font-size: 12px&quot;&gt;&lt;/font&gt;" id="0uZ7unWX9YPgCVN430QD-88">
          <mxCell style="rounded=0;whiteSpace=wrap;html=1;strokeWidth=1;fillColor=#FFFFFF;fontSize=12;align=center;horizontal=1;verticalAlign=middle;arcSize=6;container=0;absoluteArcSize=1;recursiveResize=0;" vertex="1" parent="0uZ7unWX9YPgCVN430QD-1">
            <mxGeometry x="370" y="340" width="80" height="40" as="geometry" />
          </mxCell>
        </UserObject>
        <UserObject label="Standards based Authorisation" id="0uZ7unWX9YPgCVN430QD-89">
          <mxCell style="rounded=0;whiteSpace=wrap;html=1;strokeWidth=1;fillColor=#D5E8D4;fontSize=12;align=center;horizontal=1;verticalAlign=middle;arcSize=6;container=0;absoluteArcSize=1;recursiveResize=0;gradientColor=#ffffff;gradientDirection=west;strokeColor=#82B366;" vertex="1" parent="0uZ7unWX9YPgCVN430QD-1">
            <mxGeometry x="460" y="340" width="80" height="40" as="geometry" />
          </mxCell>
        </UserObject>
        <mxCell id="0uZ7unWX9YPgCVN430QD-90" value="&lt;b style=&quot;font-size: 12px&quot;&gt;&lt;font style=&quot;font-size: 12px&quot; color=&quot;#000000&quot;&gt;HIGHER VALUE CONCEPTS&lt;/font&gt;&lt;/b&gt;" style="html=1;shadow=0;dashed=0;align=center;verticalAlign=middle;shape=mxgraph.arrows2.arrow;dy=0.48;dx=20;notch=0;labelBackgroundColor=none;strokeColor=#666666;strokeWidth=2;fillColor=none;fontSize=12;fontColor=#00994D;" vertex="1" parent="0uZ7unWX9YPgCVN430QD-1">
          <mxGeometry x="190" y="170" width="490" height="20" as="geometry" />
        </mxCell>
        <mxCell id="0uZ7unWX9YPgCVN430QD-91" value="&lt;b&gt;Key ISO-25010 Qualities&lt;br&gt;&lt;/b&gt;" style="rounded=1;align=center;fillColor=#F1F2F4;strokeColor=none;html=1;fontColor=#596780;fontSize=12;shadow=0;labelBackgroundColor=none;rotation=0;horizontal=0;" vertex="1" parent="0uZ7unWX9YPgCVN430QD-1">
          <mxGeometry x="120" y="190" width="23" height="890" as="geometry" />
        </mxCell>
        <UserObject label="&lt;font style=&quot;font-size: 12px&quot;&gt;LDAP/AAD compliant&lt;br style=&quot;font-size: 12px&quot;&gt;&lt;/font&gt;" id="0uZ7unWX9YPgCVN430QD-92">
          <mxCell style="rounded=0;whiteSpace=wrap;html=1;strokeWidth=1;fillColor=#D5E8D4;fontSize=12;align=center;horizontal=1;verticalAlign=middle;arcSize=6;container=0;absoluteArcSize=1;recursiveResize=0;gradientColor=#ffffff;gradientDirection=west;strokeColor=#82B366;" vertex="1" parent="0uZ7unWX9YPgCVN430QD-1">
            <mxGeometry x="460" y="990" width="80" height="40" as="geometry" />
          </mxCell>
        </UserObject>
        <UserObject label="&lt;font style=&quot;font-size: 12px&quot;&gt;Can also join by invitation&lt;br style=&quot;font-size: 12px&quot;&gt;&lt;/font&gt;" id="0uZ7unWX9YPgCVN430QD-93">
          <mxCell style="rounded=0;whiteSpace=wrap;html=1;strokeWidth=1;fillColor=#d5e8d4;fontSize=12;align=center;horizontal=1;verticalAlign=middle;arcSize=6;container=0;absoluteArcSize=1;recursiveResize=0;strokeColor=#82b366;" vertex="1" parent="0uZ7unWX9YPgCVN430QD-1">
            <mxGeometry x="550" y="990" width="60" height="40" as="geometry" />
          </mxCell>
        </UserObject>
        <UserObject label="&lt;font style=&quot;font-size: 12px&quot;&gt;Intuitive/pwerful UX removes need for help/training&lt;br style=&quot;font-size: 12px&quot;&gt;&lt;/font&gt;" id="0uZ7unWX9YPgCVN430QD-94">
          <mxCell style="rounded=0;whiteSpace=wrap;html=1;strokeWidth=1;fillColor=#d5e8d4;fontSize=12;align=center;horizontal=1;verticalAlign=middle;arcSize=6;container=0;absoluteArcSize=1;recursiveResize=0;strokeColor=#82b366;" vertex="1" parent="0uZ7unWX9YPgCVN430QD-1">
            <mxGeometry x="550" y="1040" width="130" height="40" as="geometry" />
          </mxCell>
        </UserObject>
        <UserObject label="User Delegation&lt;br&gt;is possible" id="0uZ7unWX9YPgCVN430QD-95">
          <mxCell style="rounded=0;whiteSpace=wrap;html=1;strokeWidth=1;fillColor=#d5e8d4;fontSize=12;align=center;horizontal=1;verticalAlign=middle;arcSize=6;container=0;absoluteArcSize=1;recursiveResize=0;strokeColor=#82b366;" vertex="1" parent="0uZ7unWX9YPgCVN430QD-1">
            <mxGeometry x="550" y="340" width="130" height="40" as="geometry" />
          </mxCell>
        </UserObject>
        <UserObject label="&lt;font style=&quot;font-size: 12px&quot;&gt;Monitoring and alerting can be centralized&lt;br style=&quot;font-size: 12px&quot;&gt;&lt;/font&gt;" id="0uZ7unWX9YPgCVN430QD-96">
          <mxCell style="rounded=0;whiteSpace=wrap;html=1;strokeWidth=1;fillColor=#d5e8d4;fontSize=12;align=center;horizontal=1;verticalAlign=middle;arcSize=6;container=0;absoluteArcSize=1;recursiveResize=0;strokeColor=#82b366;" vertex="1" parent="0uZ7unWX9YPgCVN430QD-1">
            <mxGeometry x="460" y="840" width="220" height="40" as="geometry" />
          </mxCell>
        </UserObject>
        <UserObject label="&lt;font style=&quot;font-size: 12px&quot;&gt;Can develop authorizable custom activity workflows&lt;br style=&quot;font-size: 12px&quot;&gt;&lt;/font&gt;" id="0uZ7unWX9YPgCVN430QD-97">
          <mxCell style="rounded=0;whiteSpace=wrap;html=1;strokeWidth=1;fillColor=#d5e8d4;fontSize=12;align=center;horizontal=1;verticalAlign=middle;arcSize=6;container=0;absoluteArcSize=1;recursiveResize=0;strokeColor=#82b366;" vertex="1" parent="0uZ7unWX9YPgCVN430QD-1">
            <mxGeometry x="550" y="590" width="130" height="40" as="geometry" />
          </mxCell>
        </UserObject>
        <UserObject label="No UserVoice" id="0uZ7unWX9YPgCVN430QD-98">
          <mxCell style="rounded=0;whiteSpace=wrap;html=1;strokeWidth=1;fillColor=#f8cecc;fontSize=12;align=center;horizontal=1;verticalAlign=middle;arcSize=6;container=0;absoluteArcSize=1;recursiveResize=0;strokeColor=#b85450;" vertex="1" parent="0uZ7unWX9YPgCVN430QD-1">
            <mxGeometry x="190" y="639.5" width="80" height="40" as="geometry" />
          </mxCell>
        </UserObject>
        <UserObject label="&lt;font style=&quot;font-size: 12px&quot;&gt;User Voice (Ratings, Comments, Forum)&lt;br style=&quot;font-size: 12px&quot;&gt;&lt;/font&gt;" id="0uZ7unWX9YPgCVN430QD-99">
          <mxCell style="rounded=0;whiteSpace=wrap;html=1;strokeWidth=1;fillColor=#d5e8d4;fontSize=12;align=center;horizontal=1;verticalAlign=middle;arcSize=6;container=0;absoluteArcSize=1;recursiveResize=0;strokeColor=#82b366;" vertex="1" parent="0uZ7unWX9YPgCVN430QD-1">
            <mxGeometry x="560" y="639.5" width="120" height="40" as="geometry" />
          </mxCell>
        </UserObject>
        <UserObject label="&lt;font style=&quot;font-size: 12px&quot;&gt;Ratings&lt;br style=&quot;font-size: 12px&quot;&gt;&lt;/font&gt;" id="0uZ7unWX9YPgCVN430QD-100">
          <mxCell style="rounded=0;whiteSpace=wrap;html=1;strokeWidth=1;fillColor=#F8CECC;fontSize=12;align=center;horizontal=1;verticalAlign=middle;arcSize=6;container=0;absoluteArcSize=1;recursiveResize=0;gradientColor=#FFFFFF;gradientDirection=east;strokeColor=#B85450;" vertex="1" parent="0uZ7unWX9YPgCVN430QD-1">
            <mxGeometry x="280" y="639.5" width="80" height="40" as="geometry" />
          </mxCell>
        </UserObject>
        <UserObject label="&lt;font style=&quot;font-size: 12px&quot;&gt;Timed Ratings, Comments&lt;br style=&quot;font-size: 12px&quot;&gt;&lt;/font&gt;" id="0uZ7unWX9YPgCVN430QD-101">
          <mxCell style="rounded=0;whiteSpace=wrap;html=1;strokeWidth=1;fillColor=#D5E8D4;fontSize=12;align=center;horizontal=1;verticalAlign=middle;arcSize=6;container=0;absoluteArcSize=1;recursiveResize=0;gradientColor=#ffffff;gradientDirection=west;strokeColor=#82B366;" vertex="1" parent="0uZ7unWX9YPgCVN430QD-1">
            <mxGeometry x="470" y="639.5" width="80" height="40" as="geometry" />
          </mxCell>
        </UserObject>
        <UserObject label="&lt;font style=&quot;font-size: 12px&quot;&gt;Time Relevant Ratings&lt;br style=&quot;font-size: 12px&quot;&gt;&lt;/font&gt;" id="0uZ7unWX9YPgCVN430QD-102">
          <mxCell style="rounded=0;whiteSpace=wrap;html=1;strokeWidth=1;fillColor=#F8CECC;fontSize=12;align=center;horizontal=1;verticalAlign=middle;arcSize=6;container=0;absoluteArcSize=1;recursiveResize=0;gradientColor=#FFFFFF;gradientDirection=east;strokeColor=#B85450;" vertex="1" parent="0uZ7unWX9YPgCVN430QD-1">
            <mxGeometry x="370" y="639.5" width="80" height="40" as="geometry" />
          </mxCell>
        </UserObject>
        <mxCell id="0uZ7unWX9YPgCVN430QD-103" value="&lt;font style=&quot;font-size: 12px&quot;&gt;Diagram: System - Procurement High-Level Preliminary Assessment Rubric&lt;/font&gt;" style="text;strokeColor=none;fillColor=none;html=1;fontSize=12;fontStyle=2;verticalAlign=middle;align=left;shadow=0;glass=0;comic=0;opacity=30;fontColor=#808080;" vertex="1" parent="0uZ7unWX9YPgCVN430QD-1">
          <mxGeometry x="120" y="1100" width="560" height="20" as="geometry" />
        </mxCell>
      </root>
    </mxGraphModel>
  </diagram>
</mxfile>
